<svg width="154.000000" height="154.000000" viewBox="0 0 154 154" fill="none" xmlns="http://www.w3.org/2000/svg" xmlns:xlink="http://www.w3.org/1999/xlink">
	<desc>
			Created with Pixso.
	</desc>
	<defs/>
	<g opacity="0.300000">
		<rect id="Rectangle 669" rx="77.000000" width="154.000000" height="154.000000" fill="#FFFFFF" fill-opacity="1.000000"/>
		<rect id="Rectangle 669" rx="77.000000" width="154.000000" height="154.000000" stroke="#FFFFFF" stroke-opacity="0" stroke-width="3.000000"/>
	</g>
	<rect id="Rectangle 670" x="16.000000" y="16.000000" rx="61.000000" width="122.000000" height="122.000000" fill="#FFFFFF" fill-opacity="1.000000"/>
	<rect id="Rectangle 670" x="16.000000" y="16.000000" rx="61.000000" width="122.000000" height="122.000000" stroke="#FFFFFF" stroke-opacity="0" stroke-width="3.000000"/>
	<path id="Vector" d="M78.96 63.32L71.41 58.05C70.83 57.64 70.15 57.41 69.44 57.36C68.73 57.31 68.02 57.46 67.39 57.79C66.77 58.12 66.24 58.61 65.87 59.22C65.5 59.83 65.31 60.52 65.31 61.23L65.31 91.84C65.31 92.55 65.5 93.25 65.87 93.85C66.24 94.46 66.77 94.95 67.39 95.28C68.02 95.61 68.73 95.76 69.44 95.71C70.15 95.67 70.83 95.43 71.41 95.02L78.96 89.76L93.33 79.72C93.85 79.36 94.27 78.89 94.56 78.33C94.84 77.78 95 77.16 95 76.54C95 75.91 94.84 75.3 94.56 74.74C94.27 74.19 93.85 73.71 93.33 73.35L78.96 63.32Z" fill="#FA002C" fill-opacity="1.000000" fill-rule="nonzero"/>
	<path id="Vector" d="M71.41 58.05C70.83 57.64 70.15 57.41 69.44 57.36C68.73 57.31 68.02 57.46 67.39 57.79C66.77 58.12 66.24 58.61 65.87 59.22C65.5 59.83 65.31 60.52 65.31 61.23L65.31 91.84C65.31 92.55 65.5 93.25 65.87 93.85C66.24 94.46 66.77 94.95 67.39 95.28C68.02 95.61 68.73 95.76 69.44 95.71C70.15 95.67 70.83 95.43 71.41 95.02L78.96 89.76L93.33 79.72C93.85 79.36 94.27 78.89 94.56 78.33C94.84 77.78 95 77.16 95 76.54C95 75.91 94.84 75.3 94.56 74.74C94.27 74.19 93.85 73.71 93.33 73.35L78.96 63.32L71.41 58.05Z" stroke="#FFFFFF" stroke-opacity="1.000000" stroke-width="3.000000"/>
</svg>
