<svg width="34.000000" height="42.000000" viewBox="0 0 34 42" fill="none" xmlns="http://www.w3.org/2000/svg" xmlns:xlink="http://www.w3.org/1999/xlink">
	<desc>
			Created with Pixso.
	</desc>
	<defs/>
	<path id="5" d="M28.85 18.32Q24.62 14.77 15.74 14.77L12.31 14.77L12.97 6.79L30.49 6.79L30.49 -1L4.87 -1L2.72 22.64L13.45 22.64Q18.86 22.64 21.04 24.02Q22.05 24.65 22.59 25.56Q23.24 26.63 23.24 28.09Q23.24 29.4 22.69 30.42Q22.17 31.4 21.13 32.12Q19.03 33.55 15.37 33.55Q13.45 33.55 11.59 33.22Q10.26 32.98 8.96 32.57Q5.84 31.58 3.43 29.77L-0.4 37.22Q2.6 39.37 6.88 40.54Q8.97 41.11 11.1 41.4Q13.34 41.71 15.62 41.71Q21.38 41.71 25.3 39.82Q29.15 37.97 31.07 34.91Q31.11 34.85 31.15 34.78Q31.87 33.61 32.32 32.34Q33.08 30.2 33.08 27.8Q33.08 24.2 31.53 21.49Q30.52 19.71 28.85 18.32Z" fill="#FA002C" fill-opacity="1.000000" fill-rule="evenodd"/>
</svg>
