<svg width="35.000000" height="43.000000" viewBox="0 0 35 43" fill="none" xmlns="http://www.w3.org/2000/svg" xmlns:xlink="http://www.w3.org/1999/xlink">
	<desc>
			Created with Pixso.
	</desc>
	<defs/>
	<path id="8" d="M32.83 23.98Q31.19 21.47 28.08 19.92Q30.27 18.6 31.51 16.66Q31.63 16.48 31.74 16.29Q31.89 16.02 32.02 15.75Q33 13.75 33 11.28Q33 8.75 32.03 6.69Q31.59 5.76 30.95 4.92L30.95 4.91Q28.91 2.21 25.22 0.75Q21.53 -0.72 16.74 -0.72Q12 -0.72 8.33 0.75Q4.73 2.19 2.7 4.84Q2.67 4.88 2.63 4.92Q2.02 5.74 1.59 6.64Q0.6 8.73 0.6 11.28Q0.6 13.75 1.57 15.75Q1.71 16.02 1.86 16.29Q2.03 16.58 2.22 16.87Q3.44 18.67 5.46 19.92Q2.51 21.41 0.87 23.81Q0.81 23.9 0.75 23.99Q0.38 24.55 0.09 25.15Q-0.91 27.25 -0.91 29.82Q-0.91 32.42 0.06 34.59Q0.55 35.67 1.27 36.63Q3.47 39.53 7.45 41.13Q11.45 42.71 16.74 42.71Q22.01 42.71 26.03 41.13Q30.06 39.53 32.27 36.63Q33.06 35.6 33.57 34.45Q34.5 32.34 34.5 29.82Q34.5 27.25 33.49 25.15Q33.21 24.55 32.84 23.99Q32.84 23.99 32.83 23.98ZM12.02 7.83Q13.8 6.41 16.74 6.41Q19.73 6.41 21.53 7.83Q22.26 8.4 22.69 9.15Q23.33 10.24 23.33 11.7Q23.33 13.04 22.77 14.07Q22.32 14.87 21.53 15.48Q19.73 16.86 16.74 16.86Q13.74 16.86 12 15.48Q11.28 14.91 10.86 14.17Q10.25 13.11 10.25 11.7Q10.25 10.2 10.91 9.09Q11.33 8.38 12.02 7.83ZM22.51 33.92Q20.39 35.58 16.74 35.58Q13.14 35.58 11.03 33.97Q10.15 33.29 9.64 32.4Q8.93 31.16 8.93 29.51Q8.93 28 9.56 26.83Q10.08 25.87 11.03 25.13Q13.14 23.51 16.74 23.51Q20.39 23.51 22.51 25.13Q23.51 25.9 24.05 26.91Q24.65 28.05 24.65 29.51Q24.65 30.96 24.07 32.1Q23.53 33.13 22.51 33.92Z" fill="#FA002C" fill-opacity="1.000000" fill-rule="evenodd"/>
</svg>
