<svg width="33.000000" height="42.000000" viewBox="0 0 33 42" fill="none" xmlns="http://www.w3.org/2000/svg" xmlns:xlink="http://www.w3.org/1999/xlink">
	<desc>
			Created with Pixso.
	</desc>
	<defs/>
	<path id="2" d="M32.72 42L32.72 34.07L14.65 34.07L24.32 24.96Q28.45 21.12 29.89 18.12Q30.45 16.97 30.79 15.75Q31.34 13.81 31.34 11.7Q31.34 8.68 30.1 6.3Q29.79 5.69 29.39 5.12Q29.17 4.81 28.93 4.52Q27.05 2.17 23.93 0.82Q20.41 -0.72 15.74 -0.72Q10.16 -0.72 5.84 1.35Q2.43 2.97 0.18 5.6Q-0.43 6.3 -0.95 7.07L6.13 11.63Q7.21 10.13 8.64 9.17Q9.22 8.79 9.85 8.49Q12.08 7.44 14.83 7.44Q18.14 7.44 19.84 8.79Q20.38 9.21 20.75 9.75Q21.55 10.93 21.55 12.65Q21.55 14.4 20.65 16.17Q19.75 17.94 17.17 20.39L0.97 35.7L0.97 42L32.72 42Z" fill="#FA002C" fill-opacity="1.000000" fill-rule="evenodd"/>
</svg>
