<svg width="34.000000" height="42.000000" viewBox="0 0 34 42" fill="none" xmlns="http://www.w3.org/2000/svg" xmlns:xlink="http://www.w3.org/1999/xlink">
	<desc>
			Created with Pixso.
	</desc>
	<defs/>
	<path id="3" d="M30.41 20.21Q27.48 17 21.95 16.09L31.43 5.3L31.43 -1L2.03 -1L2.03 6.79L19.92 6.79L11.27 16.58L11.27 22.99L15.71 22.99Q21.21 22.99 22.87 25.51Q23.58 26.6 23.58 28.15Q23.58 29.51 23 30.54Q22.47 31.48 21.47 32.15Q19.37 33.55 15.71 33.55Q14.1 33.55 12.52 33.32Q10.87 33.07 9.27 32.57Q6.12 31.58 3.72 29.77L-0.06 37.22Q2.94 39.37 7.22 40.54Q9.31 41.11 11.44 41.4Q13.68 41.71 15.96 41.71Q21.66 41.71 25.59 39.85Q29.51 37.99 31.43 34.9Q32.35 33.42 32.83 31.82Q33.35 30.06 33.35 28.15Q33.35 25.05 32.08 22.6Q31.42 21.31 30.41 20.21Z" fill="#FA002C" fill-opacity="1.000000" fill-rule="evenodd"/>
</svg>
