<svg width="35.000000" height="43.000000" viewBox="0 0 35 43" fill="none" xmlns="http://www.w3.org/2000/svg" xmlns:xlink="http://www.w3.org/1999/xlink">
	<desc>
			Created with Pixso.
	</desc>
	<defs/>
	<path id="6" d="M26.4 17.06Q23.29 15.66 19.55 15.66Q13.74 15.66 10.17 18.48Q9.65 18.9 9.17 19.38Q9.41 13.48 12.48 10.36Q12.51 10.34 12.54 10.31Q13.14 9.71 13.83 9.22Q16.69 7.19 20.99 7.19Q25.74 7.19 28.86 9.3L32.46 2.15Q30.29 0.77 27.2 0.03Q24.11 -0.72 20.75 -0.72Q14.4 -0.72 9.56 1.92Q7.81 2.87 6.34 4.15Q3.75 6.4 2.03 9.65Q-0.66 14.75 -0.66 21.9Q-0.66 31.92 4.32 37.32Q5.45 38.55 6.78 39.49Q11.3 42.71 18.12 42.71Q22.56 42.71 26.19 41.01Q28.67 39.84 30.43 37.99Q31.25 37.13 31.92 36.12Q32.35 35.46 32.7 34.76Q34.01 32.07 34.01 28.74Q34.01 25.65 32.8 23.14Q32.49 22.48 32.09 21.87Q31.37 20.75 30.46 19.83Q28.94 18.29 26.88 17.28Q26.64 17.17 26.4 17.06ZM22.11 34.19Q20.29 35.46 17.58 35.46Q14.26 35.46 12.3 33.83Q12.24 33.78 12.17 33.72Q11.31 32.96 10.82 32.01Q10.19 30.78 10.19 29.22Q10.19 27.74 10.78 26.54Q11.29 25.5 12.23 24.68Q12.61 24.35 13.04 24.08Q14.88 22.91 17.46 22.91Q20.4 22.91 22.27 24.32Q22.46 24.46 22.64 24.62Q23.32 25.21 23.76 25.95Q24.59 27.33 24.59 29.22Q24.59 31.1 23.76 32.47Q23.32 33.2 22.64 33.78Q22.39 34 22.11 34.19Z" fill="#FA002C" fill-opacity="1.000000" fill-rule="evenodd"/>
</svg>
