<svg width="20.000000" height="20.000000" viewBox="0 0 20 20" fill="none" xmlns="http://www.w3.org/2000/svg" xmlns:xlink="http://www.w3.org/1999/xlink">
	<desc>
			Created with Pixso.
	</desc>
	<defs>
		<clipPath id="clip1_1683">
			<rect id="1608790_phone_icon (11) 1" width="20.000000" height="20.000000" fill="white" fill-opacity="0"/>
		</clipPath>
	</defs>
	<rect id="1608790_phone_icon (11) 1" width="20.000000" height="20.000000" fill="#FFFFFF" fill-opacity="0"/>
	<g clip-path="url(#clip1_1683)">
		<path id="Vector" d="M17.85 13.83C17.85 14.04 17.81 14.3 17.74 14.62C17.67 14.94 17.59 15.2 17.51 15.39C17.35 15.76 16.9 16.15 16.14 16.57C15.44 16.95 14.75 17.14 14.07 17.14C13.87 17.14 13.67 17.12 13.48 17.1C13.29 17.07 13.08 17.03 12.84 16.96C12.6 16.89 12.43 16.84 12.31 16.8C12.2 16.76 11.99 16.68 11.69 16.57C11.39 16.46 11.21 16.39 11.14 16.37C10.42 16.11 9.76 15.8 9.19 15.44C8.24 14.85 7.25 14.05 6.24 13.04C5.22 12.02 4.42 11.04 3.83 10.08C3.48 9.51 3.17 8.86 2.91 8.13C2.89 8.06 2.82 7.88 2.71 7.58C2.6 7.29 2.52 7.08 2.48 6.97C2.44 6.85 2.38 6.67 2.32 6.43C2.25 6.2 2.2 5.98 2.18 5.79C2.15 5.6 2.14 5.41 2.14 5.21C2.14 4.52 2.33 3.83 2.71 3.13C3.12 2.38 3.52 1.93 3.89 1.77C4.08 1.69 4.33 1.61 4.65 1.54C4.98 1.46 5.24 1.42 5.44 1.42C5.55 1.42 5.62 1.43 5.68 1.46C5.81 1.5 6.01 1.78 6.27 2.31C6.35 2.45 6.46 2.65 6.6 2.91C6.74 3.17 6.87 3.4 6.99 3.62C7.11 3.83 7.23 4.03 7.34 4.21C7.36 4.24 7.43 4.34 7.53 4.49C7.64 4.65 7.72 4.78 7.77 4.89C7.83 5 7.85 5.1 7.85 5.21C7.85 5.36 7.75 5.54 7.53 5.77C7.32 5.99 7.09 6.19 6.84 6.38C6.59 6.57 6.36 6.76 6.15 6.97C5.94 7.18 5.83 7.35 5.83 7.48C5.83 7.55 5.85 7.63 5.89 7.74C5.92 7.84 5.96 7.91 5.98 7.96C6.01 8.02 6.06 8.11 6.14 8.23C6.22 8.36 6.26 8.43 6.27 8.44C6.83 9.46 7.48 10.34 8.21 11.07C8.94 11.8 9.81 12.44 10.83 13.01C10.85 13.02 10.92 13.06 11.04 13.14C11.17 13.22 11.26 13.27 11.31 13.29C11.36 13.32 11.44 13.35 11.54 13.39C11.64 13.43 11.72 13.44 11.79 13.44C11.93 13.44 12.1 13.34 12.31 13.13C12.51 12.91 12.71 12.68 12.9 12.43C13.08 12.18 13.29 11.95 13.51 11.74C13.73 11.53 13.92 11.42 14.07 11.42C14.17 11.42 14.28 11.45 14.39 11.5C14.49 11.55 14.63 11.63 14.78 11.74C14.94 11.85 15.03 11.91 15.06 11.94C15.25 12.05 15.45 12.16 15.66 12.28C15.87 12.4 16.11 12.53 16.37 12.67C16.63 12.82 16.83 12.93 16.97 13.01C17.49 13.27 17.77 13.47 17.82 13.6C17.84 13.65 17.85 13.73 17.85 13.83Z" fill="#FFFFFF" fill-opacity="1.000000" fill-rule="nonzero"/>
	</g>
</svg>
