<svg width="80.000000" height="80.000000" viewBox="0 0 80 80" fill="none" xmlns="http://www.w3.org/2000/svg" xmlns:xlink="http://www.w3.org/1999/xlink">
	<desc>
			Created with Pixso.
	</desc>
	<defs>
		<clipPath id="clip1_1558">
			<rect id="3787425_telegram_logo_messanger_social_social media_icon (9) 1" width="50.000000" height="50.000000" transform="translate(14.000122 15.000000)" fill="white" fill-opacity="0"/>
		</clipPath>
		<linearGradient x1="39.000122" y1="18.000000" x2="39.000122" y2="61.839485" id="paint_linear_1_1560_0" gradientUnits="userSpaceOnUse">
			<stop stop-color="#41BCE7"/>
			<stop offset="1.000000" stop-color="#22A6DC"/>
		</linearGradient>
	</defs>
	<rect id="Rectangle 670" x="-0.999878" rx="8.000000" width="80.000000" height="80.000000" fill="#FFFFFF" fill-opacity="0"/>
	<rect id="Rectangle 670" x="0.000122" y="1.000000" rx="8.000000" width="78.000000" height="78.000000" stroke="#FFFFFF" stroke-opacity="0.200000" stroke-width="2.000000"/>
	<rect id="3787425_telegram_logo_messanger_social_social media_icon (9) 1" width="50.000000" height="50.000000" transform="translate(14.000122 15.000000)" fill="#FFFFFF" fill-opacity="0"/>
	<g clip-path="url(#clip1_1558)">
		<path id="Vector" d="M61 40C61 52.15 51.15 62 39 62C26.84 62 17 52.15 17 40C17 27.84 26.84 18 39 18C51.15 18 61 27.84 61 40Z" fill="url(#paint_linear_1_1560_0)" fill-opacity="1.000000" fill-rule="evenodd"/>
		<path id="Vector" d="M49.7 30.65L45.77 50.46C45.77 50.46 45.22 51.84 43.71 51.18L34.65 44.22L31.35 42.63L25.79 40.77C25.79 40.77 24.94 40.47 24.86 39.81C24.77 39.14 25.82 38.79 25.82 38.79L47.89 30.14C47.89 30.13 49.7 29.33 49.7 30.65Z" fill="#FFFFFF" fill-opacity="1.000000" fill-rule="nonzero"/>
		<path id="Vector" d="M33.94 50.24C33.94 50.24 33.67 50.21 33.35 49.17C33.02 48.13 31.35 42.63 31.35 42.63L44.67 34.17C44.67 34.17 45.45 33.7 45.41 34.17C45.41 34.17 45.55 34.25 45.14 34.63C44.73 35.02 34.67 44.06 34.67 44.06L33.94 50.24Z" fill="#D2E4F0" fill-opacity="1.000000" fill-rule="nonzero"/>
		<path id="Vector" d="M38.12 46.89L34.53 50.16C34.53 50.16 34.25 50.38 33.95 50.24L34.64 44.16L38.12 46.89Z" fill="#B5CFE4" fill-opacity="1.000000" fill-rule="nonzero"/>
	</g>
</svg>
