<svg width="80.000000" height="80.000000" viewBox="0 0 80 80" fill="none" xmlns="http://www.w3.org/2000/svg" xmlns:xlink="http://www.w3.org/1999/xlink">
	<desc>
			Created with Pixso.
	</desc>
	<defs>
		<clipPath id="clip1_1567">
			<rect id="4375133_logo_youtube_icon 1" width="56.000000" height="56.000000" transform="translate(11.000122 12.000000)" fill="white" fill-opacity="0"/>
		</clipPath>
	</defs>
	<rect id="Rectangle 671" x="-0.999878" rx="8.000000" width="80.000000" height="80.000000" fill="#FFFFFF" fill-opacity="0"/>
	<rect id="Rectangle 671" x="0.000122" y="1.000000" rx="8.000000" width="78.000000" height="78.000000" stroke="#FFFFFF" stroke-opacity="0.200000" stroke-width="2.000000"/>
	<rect id="4375133_logo_youtube_icon 1" width="56.000000" height="56.000000" transform="translate(11.000122 12.000000)" fill="#FFFFFF" fill-opacity="0"/>
	<g clip-path="url(#clip1_1567)">
		<path id="Vector" d="M63.1 27.84C62.52 25.66 60.82 23.95 58.65 23.37C54.73 22.31 39 22.31 39 22.31C39 22.31 23.26 22.31 19.34 23.37C17.17 23.95 15.47 25.66 14.89 27.84C13.84 31.79 13.84 40.03 13.84 40.03C13.84 40.03 13.84 48.27 14.89 52.22C15.47 54.4 17.17 56.04 19.34 56.62C23.26 57.68 39 57.68 39 57.68C39 57.68 54.73 57.68 58.65 56.62C60.82 56.04 62.52 54.4 63.1 52.22C64.15 48.27 64.15 40.03 64.15 40.03C64.15 40.03 64.15 31.79 63.1 27.84Z" fill="#FF0000" fill-opacity="1.000000" fill-rule="nonzero"/>
		<path id="Vector" d="M33.85 47.51L33.85 32.55L47 40.03L33.85 47.51Z" fill="#FFFFFF" fill-opacity="1.000000" fill-rule="nonzero"/>
	</g>
</svg>
