<svg width="76.000000" height="66.000000" viewBox="0 0 76 66" fill="none" xmlns="http://www.w3.org/2000/svg" xmlns:xlink="http://www.w3.org/1999/xlink">
	<desc>
			Created with Pixso.
	</desc>
	<defs>
		<filter id="filter_1_1518_dd" x="-0.999878" y="0.000000" width="76.000000" height="66.000000" filterUnits="userSpaceOnUse" color-interpolation-filters="sRGB">
			<feFlood flood-opacity="0" result="BackgroundImageFix"/>
			<feColorMatrix in="SourceAlpha" type="matrix" values="0 0 0 0 0 0 0 0 0 0 0 0 0 0 0 0 0 0 127 0" result="hardAlpha"/>
			<feOffset dx="0" dy="2"/>
			<feGaussianBlur stdDeviation="6.66667"/>
			<feComposite in2="hardAlpha" operator="out" k2="-1" k3="1"/>
			<feColorMatrix type="matrix" values="0 0 0 0 0 0 0 0 0 0 0 0 0 0 0 0 0 0 0.25 0"/>
			<feBlend mode="normal" in2="BackgroundImageFix" result="effect_dropShadow_1"/>
			<feBlend mode="normal" in="SourceGraphic" in2="effect_dropShadow_1" result="shape"/>
		</filter>
	</defs>
	<g filter="url(#filter_1_1518_dd)">
		<rect id="Rectangle 681" x="19.000122" y="18.000000" rx="3.000000" width="36.000000" height="26.000000" fill="#FFFFFF" fill-opacity="1.000000"/>
	</g>
	<path id="XMLID_6942_" d="M36.99 25.48C34.79 25.48 32.88 26.78 32 28.65C31.99 29.23 32.04 31 33.14 31.7C34.14 32.33 35.43 32.6 36.99 31C38.55 29.39 39.88 29.7 40.58 30.03C41.28 30.36 42.21 31.16 41.99 33.34L41.99 33.34C42.32 32.63 42.51 31.83 42.51 31C42.51 27.95 40.04 25.48 36.99 25.48Z" fill="#C60C30" fill-opacity="1.000000" fill-rule="nonzero"/>
	<path id="XMLID_6941_" d="M41.99 33.34C42.22 31.17 41.28 30.36 40.58 30.03C39.88 29.7 38.55 29.38 36.99 31C35.44 32.61 34.14 32.33 33.14 31.7C32.04 31 31.98 29.23 32 28.65C31.67 29.36 31.47 30.16 31.47 31C31.47 34.04 33.94 36.51 36.99 36.51C39.2 36.51 41.1 35.21 41.99 33.34Z" fill="#003478" fill-opacity="1.000000" fill-rule="nonzero"/>
	<path id="XMLID_6939_" d="M27.81 33.81L28.56 33.31L31.63 37.9L30.87 38.4L27.81 33.81Z" fill="#000000" fill-opacity="1.000000" fill-rule="evenodd"/>
	<path id="XMLID_6938_" d="M25.52 35.34L26.28 34.83L29.34 39.43L28.58 39.93L25.52 35.34Z" fill="#000000" fill-opacity="1.000000" fill-rule="evenodd"/>
	<path id="XMLID_6936_" d="M26.67 34.58L27.42 34.08L28.82 36.18L28.07 36.68L26.67 34.58Z" fill="#000000" fill-opacity="1.000000" fill-rule="evenodd"/>
	<path id="XMLID_6935_" d="M28.33 37.06L29.73 39.16L30.48 38.66L29.08 36.56L28.33 37.06Z" fill="#000000" fill-opacity="1.000000" fill-rule="nonzero"/>
	<path id="XMLID_6930_" d="M48.47 35.33L47.71 34.83L46.32 36.93L47.07 37.43L48.47 35.33Z" fill="#000000" fill-opacity="1.000000" fill-rule="nonzero"/>
	<path id="XMLID_6929_" d="M44.66 39.43L45.41 39.93L46.81 37.82L46.06 37.32L44.66 39.43Z" fill="#000000" fill-opacity="1.000000" fill-rule="nonzero"/>
	<path id="XMLID_6928_" d="M47.32 34.57L46.56 34.07L45.17 36.17L45.93 36.68L47.32 34.57Z" fill="#000000" fill-opacity="1.000000" fill-rule="nonzero"/>
	<path id="XMLID_6927_" d="M43.52 38.66L44.27 39.16L45.67 37.06L44.91 36.56L43.52 38.66Z" fill="#000000" fill-opacity="1.000000" fill-rule="nonzero"/>
	<path id="XMLID_6926_" d="M42.37 37.91L43.13 38.41L44.52 36.31L43.76 35.8L42.37 37.91Z" fill="#000000" fill-opacity="1.000000" fill-rule="nonzero"/>
	<path id="XMLID_6925_" d="M44.03 35.41L45.42 33.31L46.18 33.81L44.78 35.91L44.03 35.41Z" fill="#000000" fill-opacity="1.000000" fill-rule="evenodd"/>
	<path id="XMLID_6922_" d="M47.32 27.41L46.56 27.91L43.52 23.31L44.28 22.81L47.32 27.41Z" fill="#000000" fill-opacity="1.000000" fill-rule="nonzero"/>
	<path id="XMLID_6921_" d="M47.71 27.15L48.47 26.65L47.08 24.55L46.32 25.05L47.71 27.15Z" fill="#000000" fill-opacity="1.000000" fill-rule="nonzero"/>
	<path id="XMLID_6920_" d="M45.43 22.05L44.66 22.55L46.06 24.66L46.81 24.16L45.43 22.05Z" fill="#000000" fill-opacity="1.000000" fill-rule="nonzero"/>
	<path id="XMLID_6919_" d="M44.03 26.56L44.78 26.06L46.18 28.17L45.42 28.67L44.03 26.56Z" fill="#000000" fill-opacity="1.000000" fill-rule="evenodd"/>
	<path id="XMLID_6918_" d="M43.13 23.56L42.38 24.06L43.77 26.17L44.52 25.67L43.13 23.56Z" fill="#000000" fill-opacity="1.000000" fill-rule="nonzero"/>
	<path id="XMLID_6913_" d="M28.56 28.67L27.81 28.16L30.88 23.58L31.63 24.08L28.56 28.67Z" fill="#000000" fill-opacity="1.000000" fill-rule="nonzero"/>
	<path id="XMLID_6912_" d="M27.42 27.9L26.66 27.4L29.73 22.81L30.49 23.31L27.42 27.9Z" fill="#000000" fill-opacity="1.000000" fill-rule="nonzero"/>
	<path id="XMLID_6911_" d="M26.28 27.14L25.52 26.63L28.59 22.05L29.35 22.55L26.28 27.14Z" fill="#000000" fill-opacity="1.000000" fill-rule="nonzero"/>
</svg>
