<svg width="36.000000" height="36.000000" viewBox="0 0 36 36" fill="none" xmlns="http://www.w3.org/2000/svg" xmlns:xlink="http://www.w3.org/1999/xlink">
	<desc>
			Created with Pixso.
	</desc>
	<defs>
		<clipPath id="clip1_1842">
			<rect id="2849788_folder_document_multimedia_icon (2) 1" width="36.000000" height="36.000000" transform="translate(-0.112061 -0.165527)" fill="white" fill-opacity="0"/>
		</clipPath>
	</defs>
	<rect id="2849788_folder_document_multimedia_icon (2) 1" width="36.000000" height="36.000000" transform="translate(-0.112061 -0.165527)" fill="#FFFFFF" fill-opacity="0"/>
	<g clip-path="url(#clip1_1842)">
		<path id="Vector" d="M27.94 31.47L7.97 31.47C6.87 31.47 5.81 31.03 5.04 30.25C4.26 29.48 3.82 28.42 3.82 27.32L3.82 17.13C3.82 16.03 4.26 14.97 5.04 14.19C5.81 13.42 6.87 12.98 7.97 12.98L14.99 12.98C15.53 12.98 16.05 12.76 16.43 12.38C16.81 12 17.03 11.48 17.03 10.94C17.03 9.84 17.47 8.78 18.25 8.01C19.02 7.23 20.08 6.79 21.18 6.79L27.94 6.79C29.04 6.79 30.09 7.23 30.87 8.01C31.65 8.78 32.08 9.84 32.09 10.94L32.09 27.32C32.08 28.42 31.65 29.48 30.87 30.25C30.09 31.03 29.04 31.47 27.94 31.47ZM7.97 15.09C7.43 15.09 6.91 15.3 6.53 15.68C6.14 16.07 5.93 16.59 5.93 17.13L5.93 27.32C5.93 27.86 6.14 28.38 6.53 28.76C6.91 29.15 7.43 29.36 7.97 29.36L27.94 29.36C28.48 29.36 29 29.15 29.38 28.76C29.76 28.38 29.98 27.86 29.98 27.32L29.98 10.94C29.98 10.4 29.76 9.88 29.38 9.5C29 9.11 28.48 8.9 27.94 8.9L21.18 8.9C20.64 8.9 20.12 9.11 19.74 9.5C19.35 9.88 19.14 10.4 19.14 10.94C19.14 12.04 18.7 13.09 17.92 13.87C17.14 14.65 16.09 15.09 14.99 15.09L7.97 15.09Z" fill="#FA002C" fill-opacity="1.000000" fill-rule="nonzero"/>
		<path id="Vector" d="M7.97 31.47C6.87 31.47 5.81 31.03 5.04 30.25C4.26 29.48 3.82 28.42 3.82 27.32L3.82 17.13C3.82 16.03 4.26 14.97 5.04 14.19C5.81 13.42 6.87 12.98 7.97 12.98L14.99 12.98C15.53 12.98 16.05 12.76 16.43 12.38C16.81 12 17.03 11.48 17.03 10.94C17.03 9.84 17.47 8.78 18.25 8.01C19.02 7.23 20.08 6.79 21.18 6.79L27.94 6.79C29.04 6.79 30.09 7.23 30.87 8.01C31.65 8.78 32.08 9.84 32.09 10.94L32.09 27.32C32.08 28.42 31.65 29.48 30.87 30.25C30.09 31.03 29.04 31.47 27.94 31.47L7.97 31.47ZM6.53 15.68C6.14 16.07 5.93 16.59 5.93 17.13L5.93 27.32C5.93 27.86 6.14 28.38 6.53 28.76C6.91 29.15 7.43 29.36 7.97 29.36L27.94 29.36C28.48 29.36 29 29.15 29.38 28.76C29.76 28.38 29.98 27.86 29.98 27.32L29.98 10.94C29.98 10.4 29.76 9.88 29.38 9.5C29 9.11 28.48 8.9 27.94 8.9L21.18 8.9C20.64 8.9 20.12 9.11 19.74 9.5C19.35 9.88 19.14 10.4 19.14 10.94C19.14 12.04 18.7 13.09 17.92 13.87C17.14 14.65 16.09 15.09 14.99 15.09L7.97 15.09C7.43 15.09 6.91 15.3 6.53 15.68Z" stroke="#FA002C" stroke-opacity="0" stroke-width="2.000000"/>
		<path id="Vector" d="M8.39 14.42C8.11 14.42 7.84 14.31 7.64 14.11C7.45 13.91 7.34 13.65 7.34 13.37L7.34 3.59C7.34 3.31 7.45 3.04 7.64 2.85C7.84 2.65 8.11 2.54 8.39 2.54L27.52 2.54C27.8 2.54 28.06 2.65 28.26 2.85C28.46 3.04 28.57 3.31 28.57 3.59L28.57 7.18C28.57 7.46 28.46 7.73 28.26 7.92C28.06 8.12 27.8 8.23 27.52 8.23C27.24 8.23 26.97 8.12 26.77 7.92C26.57 7.73 26.46 7.46 26.46 7.18L26.46 4.65L9.45 4.65L9.45 13.37C9.45 13.65 9.33 13.91 9.14 14.11C8.94 14.31 8.67 14.42 8.39 14.42Z" fill="#FA002C" fill-opacity="1.000000" fill-rule="nonzero"/>
		<path id="Vector" d="M7.64 14.11C7.45 13.91 7.34 13.65 7.34 13.37L7.34 3.59C7.34 3.31 7.45 3.04 7.64 2.85C7.84 2.65 8.11 2.54 8.39 2.54L27.52 2.54C27.8 2.54 28.06 2.65 28.26 2.85C28.46 3.04 28.57 3.31 28.57 3.59L28.57 7.18C28.57 7.46 28.46 7.73 28.26 7.92C28.06 8.12 27.8 8.23 27.52 8.23C27.24 8.23 26.97 8.12 26.77 7.92C26.57 7.73 26.46 7.46 26.46 7.18L26.46 4.65L9.45 4.65L9.45 13.37C9.45 13.65 9.33 13.91 9.14 14.11C8.94 14.31 8.67 14.42 8.39 14.42C8.11 14.42 7.84 14.31 7.64 14.11Z" stroke="#FA002C" stroke-opacity="0" stroke-width="2.000000"/>
	</g>
</svg>
