<svg width="36.000000" height="36.000000" viewBox="0 0 36 36" fill="none" xmlns="http://www.w3.org/2000/svg" xmlns:xlink="http://www.w3.org/1999/xlink">
	<desc>
			Created with Pixso.
	</desc>
	<defs>
		<clipPath id="clip1_1808">
			<rect id="3994405_antivirus_insurance_protection_security_shield_icon 1" width="36.000000" height="36.000000" transform="translate(-0.112061 -0.165527)" fill="white" fill-opacity="0"/>
		</clipPath>
	</defs>
	<rect id="3994405_antivirus_insurance_protection_security_shield_icon 1" width="36.000000" height="36.000000" transform="translate(-0.112061 -0.165527)" fill="#FFFFFF" fill-opacity="0"/>
	<g clip-path="url(#clip1_1808)">
		<path id="Vector 35" d="M16.96 2.81C17.54 2.51 18.23 2.51 18.8 2.81L30.3 8.77C30.97 9.11 31.38 9.8 31.38 10.55L31.38 21.49C31.38 21.71 31.35 21.94 31.26 22.15C29.77 25.65 22.73 33.33 17.88 33.33C12.98 33.33 5.83 26.44 4.46 22.08C4.4 21.92 4.38 21.74 4.38 21.56L4.38 10.55C4.38 9.8 4.8 9.11 5.46 8.77L16.96 2.81Z" stroke="#FA002C" stroke-opacity="1.000000" stroke-width="2.500000"/>
		<path id="Vector 24" d="M13.22 18.16L16.32 21.16L23.22 14.5" stroke="#FA002C" stroke-opacity="1.000000" stroke-width="2.500000"/>
	</g>
</svg>
