<svg width="36.000000" height="36.000000" viewBox="0 0 36 36" fill="none" xmlns="http://www.w3.org/2000/svg" xmlns:xlink="http://www.w3.org/1999/xlink">
	<desc>
			Created with Pixso.
	</desc>
	<defs>
		<clipPath id="clip1_1829">
			<rect id="7787505_camera_photography_photo_picture_image_icon 1" width="36.000000" height="36.000000" transform="translate(-0.112305 -0.165527)" fill="white" fill-opacity="0"/>
		</clipPath>
	</defs>
	<g clip-path="url(#clip1_1829)">
		<path id="Vector 34" d="M30.88 30.83C31.99 30.83 32.88 29.93 32.88 28.83L32.88 11.45C32.88 10.35 31.99 9.45 30.88 9.45L25.99 9.45C24.89 9.45 23.99 8.56 23.99 7.45L23.99 5.83C23.99 4.72 23.1 3.83 21.99 3.83L13.77 3.83C12.67 3.83 11.77 4.72 11.77 5.83L11.77 7.45C11.77 8.56 10.88 9.45 9.77 9.45L4.88 9.45C3.78 9.45 2.88 10.35 2.88 11.45L2.88 28.83C2.88 29.93 3.78 30.83 4.88 30.83L30.88 30.83Z" stroke="#FA002C" stroke-opacity="1.000000" stroke-width="2.500000"/>
		<circle id="Ellipse 6" cx="17.887695" cy="19.834473" r="6.000000" stroke="#FA002C" stroke-opacity="1.000000" stroke-width="2.500000"/>
	</g>
</svg>
