<svg width="38.000000" height="36.000000" viewBox="0 0 38 36" fill="none" xmlns="http://www.w3.org/2000/svg" xmlns:xlink="http://www.w3.org/1999/xlink">
	<desc>
			Created with Pixso.
	</desc>
	<defs>
		<clipPath id="clip1_1816">
			<rect id="8134642_like_thumb_thumbs_up_vote_icon 1" width="37.894737" height="36.000000" transform="translate(-0.112061 -0.165527)" fill="white" fill-opacity="0"/>
		</clipPath>
	</defs>
	<g clip-path="url(#clip1_1816)">
		<path id="Vector" d="M10.47 14.36L10.47 31.08L4.73 31.08C4.21 31.08 3.78 30.5 3.78 29.79L3.78 15.64C3.78 14.93 4.21 14.36 4.73 14.36L10.47 14.36Z" stroke="#FA002C" stroke-opacity="1.000000" stroke-width="2.500000" stroke-linejoin="round"/>
		<path id="Vector" d="M10.47 15.61L15.99 4.92C16.8 3.34 18.74 2.72 20.32 3.53C20.62 3.69 20.89 3.88 21.12 4.12C22.06 5.06 22.59 6.34 22.59 7.67L22.59 12.68L31.37 12.68C32.09 12.68 32.78 12.99 33.26 13.53C33.73 14.07 33.95 14.79 33.86 15.5L31.98 28.88C31.83 30.14 30.76 31.08 29.49 31.08L10.47 31.08" stroke="#FA002C" stroke-opacity="1.000000" stroke-width="2.500000" stroke-linejoin="round" stroke-linecap="round"/>
	</g>
</svg>
