<svg width="36.000000" height="36.000000" viewBox="0 0 36 36" fill="none" xmlns="http://www.w3.org/2000/svg" xmlns:xlink="http://www.w3.org/1999/xlink">
	<desc>
			Created with Pixso.
	</desc>
	<defs>
		<clipPath id="clip1_1836">
			<rect id="9042862_money_square_icon 1" width="36.000000" height="36.000000" transform="translate(-0.112061 -0.165527)" fill="white" fill-opacity="0"/>
		</clipPath>
	</defs>
	<rect id="9042862_money_square_icon 1" width="36.000000" height="36.000000" transform="translate(-0.112061 -0.165527)" fill="#FFFFFF" fill-opacity="0"/>
	<g clip-path="url(#clip1_1836)">
		<path id="Vector" d="M4.38 5.23C4.38 4.73 4.79 4.33 5.28 4.33L30.48 4.33C30.98 4.33 31.38 4.73 31.38 5.23L31.38 30.43C31.38 30.93 30.98 31.33 30.48 31.33L5.28 31.33C4.79 31.33 4.38 30.93 4.38 30.43L4.38 5.23Z" stroke="#FA002C" stroke-opacity="1.000000" stroke-width="2.500000" stroke-linejoin="round"/>
		<path id="Vector" d="M22.38 12.58C21.36 11.55 19.55 10.84 17.88 10.79C15.9 10.74 14.13 11.63 14.13 14.08C14.13 18.58 22.38 16.33 22.38 20.83C22.38 23.4 20.19 24.5 17.88 24.42C16.15 24.35 14.35 23.62 13.38 22.33M17.88 10.79L17.88 8.08M17.88 24.42L17.88 27.58" stroke="#FA002C" stroke-opacity="1.000000" stroke-width="2.500000" stroke-linejoin="round"/>
	</g>
</svg>
