<svg width="36.000000" height="36.000000" viewBox="0 0 36 36" fill="none" xmlns="http://www.w3.org/2000/svg" xmlns:xlink="http://www.w3.org/1999/xlink">
	<desc>
			Created with Pixso.
	</desc>
	<defs>
		<clipPath id="clip1_1849">
			<rect id="9081376_receipt_tax_icon 1" width="36.000000" height="36.000000" transform="translate(-0.112305 -0.165527)" fill="white" fill-opacity="0"/>
		</clipPath>
	</defs>
	<rect id="9081376_receipt_tax_icon 1" width="36.000000" height="36.000000" transform="translate(-0.112305 -0.165527)" fill="#FFFFFF" fill-opacity="0"/>
	<g clip-path="url(#clip1_1849)">
		<path id="Vector" d="M13.22 21.16L22.55 11.16" stroke="#FA002C" stroke-opacity="1.000000" stroke-width="2.500000" stroke-linejoin="round" stroke-linecap="round"/>
		<path id="Vector" d="M13.38 13.83C12.55 13.83 11.88 13.16 11.88 12.33C11.88 11.5 12.55 10.83 13.38 10.83C14.21 10.83 14.88 11.5 14.88 12.33C14.88 13.16 14.21 13.83 13.38 13.83Z" stroke="#FA002C" stroke-opacity="1.000000" stroke-width="2.500000" stroke-linejoin="round"/>
		<path id="Vector" d="M22.38 21.83C21.55 21.83 20.88 21.16 20.88 20.33C20.88 19.5 21.55 18.83 22.38 18.83C23.21 18.83 23.88 19.5 23.88 20.33C23.88 21.16 23.21 21.83 22.38 21.83Z" stroke="#FA002C" stroke-opacity="1.000000" stroke-width="2.500000" stroke-linejoin="round"/>
		<path id="Vector" d="M5.88 5.9C5.88 5 6.24 4.13 6.89 3.49C7.53 2.85 8.4 2.5 9.31 2.5L26.45 2.5C27.36 2.5 28.24 2.85 28.88 3.49C29.52 4.13 29.88 5 29.88 5.9L29.88 33.16L24.74 29.76L21.31 33.16L17.88 29.76L14.45 33.16L11.03 29.76L5.88 33.16L5.88 5.9Z" stroke="#FA002C" stroke-opacity="1.000000" stroke-width="2.500000" stroke-linejoin="round"/>
	</g>
</svg>
