<svg width="40.000000" height="40.000000" viewBox="0 0 40 40" fill="none" xmlns="http://www.w3.org/2000/svg" xmlns:xlink="http://www.w3.org/1999/xlink">
	<desc>
			Created with Pixso.
	</desc>
	<defs/>
	<rect id="Iconly/Bulk/Calendar" width="40.000000" height="40.000000" fill="#FFFFFF" fill-opacity="0"/>
	<path id="Fill 1" d="" fill="#4D77FF" fill-opacity="1.000000" fill-rule="nonzero"/>
	<g opacity="0.400000">
		<path id="Fill 4" d="M5 15.42C5.02 14.44 5.1 12.5 5.26 11.88C6.05 8.36 8.73 6.13 12.57 5.81L27.42 5.81C31.23 6.15 33.94 8.39 34.73 11.88C34.89 12.49 34.97 14.44 34.99 15.42L5 15.42Z" fill="#4D77FF" fill-opacity="1.000000" fill-rule="nonzero"/>
	</g>
	<path id="Fill 6" d="M13.84 10.98C14.56 10.98 15.1 10.43 15.1 9.69L15.1 4.61C15.1 3.88 14.56 3.33 13.84 3.33C13.11 3.33 12.57 3.88 12.57 4.61L12.57 9.69C12.57 10.43 13.11 10.98 13.84 10.98Z" fill="#4D77FF" fill-opacity="1.000000" fill-rule="nonzero"/>
	<path id="Fill 9" d="M26.15 10.98C26.86 10.98 27.42 10.43 27.42 9.69L27.42 4.61C27.42 3.88 26.86 3.33 26.15 3.33C25.43 3.33 24.89 3.88 24.89 4.61L24.89 9.69C24.89 10.43 25.43 10.98 26.15 10.98Z" fill="#4D77FF" fill-opacity="1.000000" fill-rule="nonzero"/>
</svg>
